<?xml version="1.0" standalone="no"?>
<!DOCTYPE svg PUBLIC "-//W3C//DTD SVG 20010904//EN"
 "http://www.w3.org/TR/2001/REC-SVG-20010904/DTD/svg10.dtd">
<svg version="1.0" xmlns="http://www.w3.org/2000/svg"
 width="700.000000pt" height="700.000000pt" viewBox="0 0 700.000000 700.000000"
 preserveAspectRatio="xMidYMid meet">
<metadata>
Created by potrace 1.11, written by Peter Selinger 2001-2013
</metadata>
<g transform="translate(0.000000,700.000000) scale(0.100000,-0.100000)"
fill="#000000" stroke="none">
<path d="M595 6945 c-250 -55 -440 -226 -523 -470 l-27 -80 0 -2895 0 -2895
27 -80 c38 -112 91 -197 174 -279 82 -83 167 -136 279 -174 l80 -27 2895 0
2895 0 80 27 c112 38 197 91 279 174 83 82 136 167 174 279 l27 80 0 2895 0
2895 -27 80 c-38 112 -91 197 -174 279 -82 83 -167 136 -279 174 l-80 27
-2870 2 c-2354 1 -2881 -1 -2930 -12z m2833 -315 c64 -39 88 -113 58 -183 -17
-41 -42 -63 -93 -81 -32 -11 -314 -265 -1245 -1122 l-1203 -1108 -6 -48 c-4
-26 -14 -60 -23 -74 -41 -61 -131 -82 -194 -44 -128 78 -73 270 78 270 l45 0
1190 1096 c655 602 1188 1101 1186 1107 -3 7 -6 32 -8 57 -7 80 60 150 142
150 22 0 54 -9 73 -20z m358 -141 c55 -26 90 -91 80 -149 l-6 -38 1150 -1058
1149 -1058 43 2 c52 3 99 -23 129 -70 15 -26 19 -45 16 -86 -3 -45 -9 -59 -40
-89 -30 -31 -44 -37 -89 -40 -88 -7 -143 41 -156 134 l-7 47 -1157 1066 c-959
883 -1162 1065 -1187 1067 -75 5 -131 65 -131 141 0 69 37 124 96 142 46 13
65 11 110 -11z m-299 -349 c68 -41 91 -122 53 -187 -12 -21 -28 -42 -36 -46
-12 -7 -14 -82 -14 -449 l0 -442 150 -628 150 -629 0 -1184 0 -1184 21 -11
c57 -31 77 -134 38 -197 -40 -64 -140 -88 -197 -46 -41 30 -72 82 -72 120 0
39 32 108 55 116 13 6 15 132 15 1180 l0 1174 -155 651 -155 651 0 429 c0 423
0 429 -21 448 -49 44 -64 126 -34 185 34 65 135 90 202 49z m-477 -345 c86
-45 105 -169 35 -235 -24 -23 -25 -27 -25 -155 l0 -132 -440 -423 c-370 -356
-439 -426 -434 -444 32 -100 -35 -196 -136 -196 -112 0 -179 104 -131 204 21
42 59 70 121 88 8 3 207 189 441 414 l427 409 1 106 c1 96 -1 108 -20 125 -59
53 -65 150 -13 206 16 16 38 34 49 38 32 14 94 11 125 -5z m837 -115 c49 -30
68 -66 68 -132 l0 -58 480 -480 c420 -420 484 -480 510 -480 39 0 90 -32 116
-72 15 -26 19 -45 16 -86 -3 -45 -9 -59 -40 -89 -30 -31 -44 -37 -89 -41 -44
-3 -59 0 -88 20 -49 33 -72 82 -66 139 l5 45 -482 481 c-438 437 -486 481
-521 486 -76 12 -126 69 -126 146 0 110 123 179 217 121z m-877 -838 c119 -59
99 -237 -30 -269 -29 -8 -109 -88 -467 -474 l-432 -464 0 -383 c-1 -377 -1
-383 21 -412 43 -58 20 -161 -45 -200 -42 -26 -112 -26 -155 0 -87 53 -88 193
-1 244 l29 17 1 392 0 392 444 479 c397 428 443 481 434 499 -15 28 -5 104 18
136 24 33 79 61 118 61 17 0 46 -8 65 -18z m1150 -50 c50 -25 80 -75 80 -131
l0 -47 455 -492 455 -491 0 -370 c0 -354 1 -371 19 -380 31 -17 64 -97 58
-138 -22 -131 -198 -170 -267 -58 -34 55 -30 123 10 168 l30 35 0 346 0 347
-435 469 c-424 457 -437 470 -473 470 -80 0 -146 71 -139 151 9 108 113 169
207 121z m-2512 -362 c41 -25 72 -76 72 -118 0 -39 -21 -92 -43 -111 -16 -12
-17 -82 -17 -830 l0 -817 268 -502 c215 -405 271 -502 287 -502 55 0 115 -72
115 -138 0 -135 -150 -201 -245 -107 -40 41 -53 90 -36 147 l12 40 -275 517
-276 518 0 822 0 822 -29 24 c-39 33 -55 76 -48 131 5 47 41 97 82 114 36 15
99 11 133 -10z m1475 -117 c80 -40 90 -172 18 -237 -21 -19 -21 -24 -21 -498
l0 -479 155 -197 c149 -189 156 -197 192 -200 41 -2 76 -23 105 -63 51 -68 22
-171 -58 -210 -104 -50 -207 20 -203 138 l3 52 -172 218 -172 218 0 507 c0
420 -2 508 -14 515 -23 13 -56 76 -56 106 0 65 52 133 112 147 37 8 70 4 111
-17z m2444 -923 l3 -915 -293 -549 -294 -549 13 -37 c31 -88 -42 -190 -136
-190 -82 0 -160 87 -147 166 10 62 72 123 124 124 13 0 89 134 301 532 l282
531 0 904 0 904 73 -3 72 -3 2 -915z m-2883 421 c81 -54 90 -169 17 -235 l-21
-19 0 -1427 0 -1427 21 -19 c99 -89 41 -254 -89 -254 -132 0 -200 146 -112
240 l30 32 0 1433 c0 1245 -2 1434 -15 1438 -8 4 -24 25 -36 48 -50 100 18
209 131 209 27 0 56 -8 74 -19z m1853 -42 c47 -23 83 -77 83 -124 0 -35 -23
-86 -49 -109 l-21 -19 0 -1447 0 -1447 25 -23 c51 -47 57 -139 14 -194 -58
-74 -160 -75 -229 -1 -21 23 -25 36 -25 90 0 59 3 67 33 97 l32 34 0 1447 c0
922 -3 1447 -10 1447 -5 0 -21 17 -35 37 -50 74 -24 176 55 215 46 23 74 23
127 -3z m1501 -43 c52 -27 75 -62 80 -120 3 -44 0 -62 -17 -89 -12 -19 -28
-38 -36 -41 -13 -5 -15 -181 -15 -1427 l0 -1422 35 -38 c31 -35 35 -45 35 -94
0 -51 -3 -59 -38 -97 -34 -36 -45 -42 -93 -45 -45 -4 -60 -1 -89 19 -76 51
-90 145 -31 218 l31 39 0 1419 0 1419 -25 23 c-50 47 -57 131 -16 189 39 55
122 77 179 47z m-4898 -136 c31 0 89 -58 101 -101 15 -49 0 -106 -36 -141
l-25 -23 0 -1326 0 -1326 25 -23 c71 -67 49 -199 -41 -236 -67 -28 -129 -12
-178 46 -21 26 -26 42 -26 86 0 48 4 58 35 93 l35 38 0 1320 0 1320 -21 19
c-63 57 -66 173 -5 223 22 19 88 41 104 36 8 -3 22 -5 32 -5z m2130 -1292 c39
-27 70 -81 70 -121 0 -39 -28 -95 -56 -114 l-24 -15 0 -673 c0 -670 0 -672 21
-691 100 -90 41 -254 -91 -254 -112 0 -181 109 -131 208 12 23 30 46 41 52 20
11 20 21 20 682 l0 671 -35 38 c-31 34 -35 46 -35 92 0 66 30 112 90 139 34
15 97 8 130 -14z m-1770 -580 c56 -39 73 -70 72 -135 0 -56 5 -69 132 -312
129 -246 134 -255 171 -268 120 -41 142 -174 45 -257 -26 -21 -42 -26 -85 -26
-46 0 -60 5 -88 30 -45 39 -61 79 -53 132 3 24 7 50 8 58 1 8 -55 126 -126
263 -123 239 -128 247 -157 247 -99 0 -165 111 -120 203 39 80 134 110 201 65z
m4229 -45 c47 -36 66 -71 65 -123 -1 -76 -46 -127 -122 -139 -37 -6 -37 -6
-169 -261 -98 -189 -131 -260 -125 -275 4 -11 7 -42 7 -70 0 -82 -56 -137
-140 -137 -75 0 -133 49 -142 122 -10 76 33 142 111 167 25 8 46 43 166 273
118 226 136 267 130 291 -18 61 21 136 85 165 38 18 100 11 134 -13z"/>
</g>
</svg>
