<svg xmlns="http://www.w3.org/2000/svg" viewBox="0 0 100 100"><rect x=".524" y=".524" width="98.953" height="98.953" rx="10" fill="#222"/><g fill="#61dafb"><path d="M11.34 41.504L48.75 7.063"/><path d="M48.072 6.327l1.36 1.477L12.014 42.24l-1.36-1.477zM30.27 81.225L21.103 64.03V37.756h2.008v25.772l8.932 16.752zM14.17 50.73h2.012V92.2H14.17zm6.566 25.318l5.796 11.173-1.786.927-5.796-11.173zm8.314-15.522h-2v-13.12L41.3 31.982l1.476 1.365-13.74 14.846zm6.62-13.93h2.007v45.612H35.67zm52.992-4.366L53.235 9.614m.665-.74L89.34 41.5l-1.362 1.48-35.43-32.618zM69.728 81.95l-1.775-.947 8.936-16.75V38.48h2.008v26.274zM83.82 49.387h2.008v43.55H83.82zm-4.563 27.385l1.784.925-5.8 11.173-1.784-.925zm-6.3-15.522h-2V48.917L57.2 34.07l1.477-1.364 14.27 15.422zM28.743 38.48l-1.394-1.45 13.695-13.176V18.55h2.008v6.16zM54.18 81.477h-2V46.715l-4.425-18.56v-15.13h2.008v15l4.427 18.56zM43.965 67.583h2v24.625h-2zm3.995-3.52l-6.004-7.644v-16.76h2v16.066l5.577 7.097zm5.94-44.547L71.484 37.1l-1.42 1.42L52.47 20.935zm8.42 27.805h2.008v45.616H62.32z"/><circle cx="63.327" cy="47.976" r="2.067"/><circle cx="44.967" cy="91.814" r="2.066"/><circle cx="15.177" cy="92.208" r="2.066"/><circle cx="19.844" cy="77.236" r="2.066"/><circle cx="25.644" cy="87.681" r="2.069"/><circle cx="30.668" cy="79.893" r="2.067"/><circle cx="21.911" cy="38.481" r="2.067"/><circle cx="15.177" cy="50.729" r="2.066"/><circle cx="11.336" cy="41.504" r="2.066"/><circle cx="47.92" cy="7.063" r="2.065"/><circle cx="88.663" cy="42.229" r="2.067"/><circle cx="53.176" cy="9.13" r="2.065"/><circle cx="53.901" cy="20.618" r="2.067"/><circle cx="48.747" cy="14.029" r="2.067"/><circle cx="42.048" cy="19.055" r="2.067"/><path d="M30.766 37.823c0 1.142-.923 2.066-2.066 2.066a2.07 2.07 0 0 1-2.068-2.066 2.07 2.07 0 0 1 2.068-2.066c1.143-.001 2.066.924 2.066 2.066z"/><circle cx="69.958" cy="37.372" r="2.066"/><circle cx="42.958" cy="40.161" r="2.067"/><circle cx="41.508" cy="32.664" r="2.067"/><circle cx="27.71" cy="60.526" r="2.066"/><circle cx="48.747" cy="63.442" r="2.067"/><circle cx="36.675" cy="47.321" r="2.067"/><circle cx="36.675" cy="91.814" r="2.067"/><circle cx="45.027" cy="68.921" r="2.066"/><circle cx="53.232" cy="81.991" r="2.066"/><circle cx="63.327" cy="92.935" r="2.067"/><circle cx="57.952" cy="33.39" r="2.068"/><path d="M74.086 60.527a2.06 2.06 0 0 1-2.062 2.065c-1.143 0-2.07-.923-2.07-2.065a2.07 2.07 0 0 1 2.069-2.066c1.14 0 2.062.926 2.062 2.066z"/><circle cx="68.842" cy="81.477" r="2.067"/><circle cx="74.358" cy="88.408" r="2.068"/><circle cx="80.156" cy="77.829" r="2.065"/><circle cx="84.824" cy="92.935" r="2.065"/><circle cx="84.825" cy="48.663" r="2.067"/></g></svg>